<svg width="145" height="140" viewBox="0 0 145 140" fill="none" xmlns="http://www.w3.org/2000/svg">
    <path d="M119.983 51.8277C122.407 51.8277 124.373 49.8684 124.373 47.4514C124.373 45.0345 122.407 43.0752 119.983 43.0752C117.559 43.0752 115.594 45.0345 115.594 47.4514C115.594 49.8684 117.559 51.8277 119.983 51.8277Z" fill="#EFEAFF"/>
    <path d="M3.38776 75.4936C4.98263 75.4936 6.27553 74.2046 6.27553 72.6145C6.27553 71.0244 4.98263 69.7354 3.38776 69.7354C1.7929 69.7354 0.5 71.0244 0.5 72.6145C0.5 74.2046 1.7929 75.4936 3.38776 75.4936Z" fill="#EFEAFF"/>
    <path d="M16.6612 127.254C18.2561 127.254 19.549 125.965 19.549 124.375C19.549 122.785 18.2561 121.496 16.6612 121.496C15.0663 121.496 13.7734 122.785 13.7734 124.375C13.7734 125.965 15.0663 127.254 16.6612 127.254Z" fill="#EFEAFF"/>
    <path d="M32.0977 127.255L72.6211 114.606V62.748L32.0977 75.2991V127.255Z" fill="#B9A5FF"/>
    <path opacity="0.9" d="M113.144 127.255L72.6211 114.606V62.748L113.144 75.2991V127.255Z" fill="#C1B0FF"/>
    <g opacity="0.13">
        <path d="M32.0977 127.255L72.6211 114.606V62.748L32.0977 75.2991V127.255Z" fill="url(#paint0_linear_7816_39496)"/>
        <path d="M113.144 127.255L72.6211 114.606V62.748L113.144 75.2991V127.255Z" fill="url(#paint1_linear_7816_39496)"/>
    </g>
    <path d="M72.6211 140.001L32.0977 127.352V75.4941L72.6211 88.1425V140.001Z" fill="#F1EEFF"/>
    <path d="M72.6211 140.001L113.144 127.352V75.4941L72.6211 88.1425V140.001Z" fill="#E2DAFF"/>
    <path opacity="0.09" d="M63.4396 130.855L32.0977 127.352V75.4941L72.6211 88.1425L63.4396 130.855Z" fill="url(#paint2_linear_7816_39496)"/>
    <path opacity="0.2" d="M81.8025 121.709L113.144 127.352V75.4941L72.6211 88.1425L81.8025 121.709Z" fill="url(#paint3_linear_7816_39496)"/>
    <path d="M72.6204 62.7481L53.5676 48.543L12.3672 62.3589L32.097 75.2991L72.6204 62.7481Z" fill="#E2DAFF"/>
    <path d="M72.6211 62.7481L91.6739 48.543L132.874 62.3589L113.144 75.2991L72.6211 62.7481Z" fill="#E2DAFF"/>
    <path d="M32.097 75.4941L72.6204 88.1425L52.407 100.985L12.3672 87.7533L32.097 75.4941Z" fill="#F4F1FF"/>
    <path d="M113.144 75.4941L72.6211 88.1425L92.8344 100.985L132.874 87.7533L113.144 75.4941Z" fill="#F1EEFF"/>
    <path d="M83.9284 12.9623C89.6055 28.3094 91.2976 31.7194 91.853 46.8418C91.6394 50.2937 91.507 54.0474 89.8732 57.0699C87.6913 61.6936 82.3545 64.8957 77.3124 64.9476C72.1181 65.04 67.0258 61.872 64.7337 56.9869C63.121 54.0222 63.1724 49.9669 65.3844 47.2751C67.7892 44.6936 72.0197 44.0499 75.063 45.6629C78.4107 47.1948 80.4088 50.38 81.1489 53.7392C81.889 57.0983 81.5638 60.7417 80.6604 64.0544C78.7711 72.1112 77.2062 72.5009 72.5727 86.1415" stroke="#DFBD40" stroke-width="2" stroke-miterlimit="10" stroke-dasharray="4 4"/>
    <path d="M90.8393 4.83861C90.8261 7.09529 88.7179 8.47709 86.0443 7.75653C83.2293 7.27854 81.237 6.7859 81.1088 4.77178C81.1733 2.70622 83.4358 1.89779 86.0839 0.98648C89.259 -0.270284 90.6597 2.63337 90.8393 4.83861Z" fill="#E2DAFF"/>
    <path d="M72.6497 11.7396C74.0763 13.2025 77.084 13.629 78.5497 11.3945C80.1569 8.91739 81.5325 7.11654 80.0545 5.46251C78.6279 3.99961 77.2396 4.98452 74.0644 6.24128C71.5191 7.53484 70.9789 10.137 72.6497 11.7396Z" fill="#E2DAFF"/>
    <path d="M79.2279 2.40513C80.5263 1.85391 82.0816 2.25831 82.7755 3.30217C83.0711 3.63297 83.4181 4.1549 83.5209 4.53715C84.626 7.11 84.2785 9.66069 82.7874 10.2633C81.1548 11.1086 78.9055 9.66032 78.0447 7.22715C77.8391 6.46266 77.7363 6.08041 77.5822 5.50704C77.4153 4.11773 77.9296 2.95635 79.2279 2.40513C79.4208 2.35369 79.2279 2.40513 79.2279 2.40513Z" fill="#A48AFF"/>
    <path d="M19.5485 43.8211H17.0351V41.3174H14.8807V43.8211H12.3672V46.0386H14.8807V48.5423H17.0351V46.0386H19.5485V43.8211Z" fill="url(#paint4_linear_7816_39496)"/>
    <path d="M25.072 106.637H22.5585V104.134H20.4041V106.637H17.8906V108.855H20.4041V111.359H22.5585V108.855H25.072V106.637Z" fill="url(#paint5_linear_7816_39496)"/>
    <path d="M134.945 106.78L131.869 105.233L133.422 102.17L130.786 100.844L129.234 103.908L126.158 102.361L124.783 105.074L127.858 106.621L126.306 109.684L128.942 111.01L130.494 107.947L133.57 109.493L134.945 106.78Z" fill="url(#paint6_linear_7816_39496)"/>
    <g style="mix-blend-mode:color">
        <path d="M119.983 51.8275C122.407 51.8275 124.373 49.8682 124.373 47.4513C124.373 45.0343 122.407 43.075 119.983 43.075C117.559 43.075 115.594 45.0343 115.594 47.4513C115.594 49.8682 117.559 51.8275 119.983 51.8275Z" fill="#F7E869"/>
        <path d="M3.38776 75.4934C4.98263 75.4934 6.27553 74.2044 6.27553 72.6143C6.27553 71.0242 4.98263 69.7352 3.38776 69.7352C1.7929 69.7352 0.5 71.0242 0.5 72.6143C0.5 74.2044 1.7929 75.4934 3.38776 75.4934Z" fill="#F7E869"/>
        <path d="M16.6612 127.254C18.2561 127.254 19.549 125.965 19.549 124.375C19.549 122.785 18.2561 121.496 16.6612 121.496C15.0663 121.496 13.7734 122.785 13.7734 124.375C13.7734 125.965 15.0663 127.254 16.6612 127.254Z" fill="#F7E869"/>
        <path d="M32.0977 127.255L72.6211 114.606V62.7479L32.0977 75.299V127.255Z" fill="#F7E869"/>
        <path d="M113.145 127.255L72.6211 114.606V62.7479L113.145 75.299V127.255Z" fill="#F7E869"/>
        <path d="M32.0977 127.255L72.6211 114.606V62.7479L32.0977 75.299V127.255Z" fill="#F7E869"/>
        <path d="M113.145 127.255L72.6211 114.606V62.7479L113.145 75.299V127.255Z" fill="#F7E869"/>
        <path d="M72.6211 140.001L32.0977 127.352V75.494L72.6211 88.1423V140.001Z" fill="#F7E869"/>
        <path d="M72.6211 140.001L113.145 127.352V75.494L72.6211 88.1423V140.001Z" fill="#F7E869"/>
        <path d="M63.4396 130.855L32.0977 127.352V75.494L72.6211 88.1423L63.4396 130.855Z" fill="#F7E869"/>
        <path d="M81.8025 121.709L113.145 127.352V75.494L72.6211 88.1423L81.8025 121.709Z" fill="#F7E869"/>
        <path d="M72.6211 62.7479L53.5676 48.5428L12.3672 62.3587L32.0977 75.299L72.6211 62.7479Z" fill="#F7E869"/>
        <path d="M72.6211 62.7479L91.6739 48.5428L132.874 62.3587L113.145 75.299L72.6211 62.7479Z" fill="#F7E869"/>
        <path d="M32.0977 75.494L72.6211 88.1423L52.407 100.985L12.3672 87.7532L32.0977 75.494Z" fill="#F7E869"/>
        <path d="M113.145 75.494L72.6211 88.1423L92.8344 100.985L132.874 87.7532L113.145 75.494Z" fill="#F7E869"/>
        <path d="M77.3124 64.9474C78.391 64.9363 79.483 64.7811 80.5547 64.4986C80.5898 64.3531 80.6251 64.205 80.6604 64.0542C81.5638 60.7415 81.889 57.0982 81.1489 53.739C80.4088 50.3798 78.4107 47.1946 75.063 45.6628C72.0197 44.0497 67.7891 44.6934 65.3844 47.2749C63.1724 49.9667 63.121 54.022 64.7337 56.9868C67.0258 61.8718 72.1181 65.0399 77.3124 64.9474Z" fill="#F7E869"/>
        <path d="M90.8393 4.83844C90.8261 7.09512 88.7179 8.47692 86.0443 7.75636C83.2293 7.27837 81.237 6.78573 81.1088 4.77161C81.1734 2.70605 83.4358 1.89762 86.0839 0.98631C89.259 -0.270454 90.6597 2.63319 90.8393 4.83844Z" fill="#F7E869"/>
        <path d="M72.6497 11.7394C74.0763 13.2023 77.0841 13.6288 78.5497 11.3943C80.1569 8.91721 81.5325 7.11637 80.0545 5.46234C78.6279 3.99944 77.2396 4.98435 74.0644 6.24111C71.5191 7.53467 70.9789 10.1368 72.6497 11.7394Z" fill="#F7E869"/>
        <path d="M79.2279 2.40496C80.5263 1.85374 82.0816 2.25814 82.7756 3.302C83.0711 3.6328 83.4181 4.15473 83.5209 4.53698C84.626 7.10983 84.2785 9.66052 82.7874 10.2632C81.1548 11.1084 78.9055 9.66015 78.0447 7.22698C77.8391 6.46249 77.7363 6.08024 77.5822 5.50687C77.4153 4.11756 77.9296 2.95618 79.2279 2.40496Z" fill="#F7E869"/>
        <path d="M19.5485 43.8209H17.0351V41.3172H14.8807V43.8209H12.3672V46.0385H14.8807V48.5422H17.0351V46.0385H19.5485V43.8209Z" fill="#F7E869"/>
        <path d="M25.072 106.637H22.5585V104.134H20.4041V106.637H17.8906V108.855H20.4041V111.359H22.5585V108.855H25.072V106.637Z" fill="#F7E869"/>
        <path d="M134.945 106.78L131.869 105.233L133.422 102.17L130.786 100.844L129.234 103.908L126.158 102.361L124.783 105.074L127.858 106.621L126.306 109.684L128.942 111.01L130.494 107.947L133.57 109.493L134.945 106.78Z" fill="#F7E869"/>
    </g>
    <defs>
        <linearGradient id="paint0_linear_7816_39496" x1="59.8287" y1="66.5039" x2="54.342" y2="89.4349" gradientUnits="userSpaceOnUse">
            <stop offset="0.00289017" stop-color="#606673" stop-opacity="0"/>
            <stop offset="1" stop-color="#373C47"/>
        </linearGradient>
        <linearGradient id="paint1_linear_7816_39496" x1="59.8287" y1="66.5039" x2="54.342" y2="89.4349" gradientUnits="userSpaceOnUse">
            <stop offset="0.00289017" stop-color="#606673" stop-opacity="0"/>
            <stop offset="1" stop-color="#373C47"/>
        </linearGradient>
        <linearGradient id="paint2_linear_7816_39496" x1="41.1828" y1="110.986" x2="50.8509" y2="83.5726" gradientUnits="userSpaceOnUse">
            <stop offset="0.00289017" stop-color="#6C80AA" stop-opacity="0"/>
            <stop offset="1" stop-color="#5D6A86"/>
        </linearGradient>
        <linearGradient id="paint3_linear_7816_39496" x1="94.4911" y1="118.467" x2="95.2507" y2="83.7105" gradientUnits="userSpaceOnUse">
            <stop offset="0.00289017" stop-color="#314F91" stop-opacity="0"/>
            <stop offset="1" stop-color="#324264"/>
        </linearGradient>
        <linearGradient id="paint4_linear_7816_39496" x1="15.9584" y1="41.5684" x2="15.9584" y2="45.6237" gradientUnits="userSpaceOnUse">
            <stop stop-color="#BEABFF"/>
            <stop offset="1" stop-color="#A389FF"/>
        </linearGradient>
        <linearGradient id="paint5_linear_7816_39496" x1="21.4819" y1="104.385" x2="21.4819" y2="108.44" gradientUnits="userSpaceOnUse">
            <stop stop-color="#BEABFF"/>
            <stop offset="1" stop-color="#A389FF"/>
        </linearGradient>
        <linearGradient id="paint6_linear_7816_39496" x1="131.949" y1="101.815" x2="129.45" y2="106.784" gradientUnits="userSpaceOnUse">
            <stop stop-color="#BEABFF"/>
            <stop offset="1" stop-color="#A389FF"/>
        </linearGradient>
    </defs>
</svg>
