
<svg width="139" height="121" viewBox="0 0 139 121" fill="none" xmlns="http://www.w3.org/2000/svg">
    <path d="M69.3836 105.052C97.3415 105.052 120.007 82.4913 120.007 54.5637C120.007 26.636 97.2417 4.0752 69.3836 4.0752C41.4257 4.0752 18.7598 26.636 18.7598 54.5637C18.7598 82.4913 41.4257 105.052 69.3836 105.052Z" fill="#EAEEF9"/>
    <path d="M116.712 21.4681C118.973 21.4681 120.806 19.6437 120.806 17.3932C120.806 15.1427 118.973 13.3184 116.712 13.3184C114.451 13.3184 112.618 15.1427 112.618 17.3932C112.618 19.6437 114.451 21.4681 116.712 21.4681Z" fill="#EAEEF9"/>
    <path d="M122.704 5.56566C124.248 5.56566 125.5 4.31974 125.5 2.78283C125.5 1.24591 124.248 0 122.704 0C121.16 0 119.908 1.24591 119.908 2.78283C119.908 4.31974 121.16 5.56566 122.704 5.56566Z" fill="#EAEEF9"/>
    <path d="M21.4559 21.3684C23 21.3684 24.2517 20.1225 24.2517 18.5856C24.2517 17.0487 23 15.8027 21.4559 15.8027C19.9119 15.8027 18.6602 17.0487 18.6602 18.5856C18.6602 20.1225 19.9119 21.3684 21.4559 21.3684Z" fill="#EAEEF9"/>
    <path d="M9.69219 81.5247C12.5598 81.5247 14.8844 79.2109 14.8844 76.3566C14.8844 73.5023 12.5598 71.1885 9.69219 71.1885C6.82462 71.1885 4.5 73.5023 4.5 76.3566C4.5 79.2109 6.82462 81.5247 9.69219 81.5247Z" fill="#EAEEF9"/>
    <g filter="url(#filter0_d_8303_49378)">
        <path d="M109.786 87.5066H28.9827C25.2676 87.5066 22.249 84.5021 22.249 80.8042V29.2649C22.249 25.567 25.2676 22.5625 28.9827 22.5625H109.786C113.501 22.5625 116.52 25.567 116.52 29.2649V81.0353C116.288 84.502 113.269 87.5066 109.786 87.5066Z" fill="url(#paint0_linear_8303_49378)"/>
    </g>
    <rect x="36.957" y="24.9375" width="13.9931" height="5.12128" rx="1" fill="#D8DDEB"/>
    <rect x="87.1162" y="24.9375" width="13.9931" height="5.12128" rx="1" fill="#D8DDEB"/>
    <g filter="url(#filter1_d_8303_49378)">
        <path d="M47.9502 13.3174H39.9658C39.4135 13.3174 38.9658 13.7651 38.9658 14.3174V26.2964C38.9658 26.8487 39.4135 27.2964 39.9658 27.2964H47.9502C48.5025 27.2964 48.9502 26.8487 48.9502 26.2964V14.3174C48.9502 13.7651 48.5025 13.3174 47.9502 13.3174Z" fill="url(#paint1_linear_8303_49378)"/>
    </g>
    <g filter="url(#filter2_d_8303_49378)">
        <path d="M98.1094 13.3174H90.125C89.5727 13.3174 89.125 13.7651 89.125 14.3174V26.2964C89.125 26.8487 89.5727 27.2964 90.125 27.2964H98.1094C98.6616 27.2964 99.1094 26.8487 99.1094 26.2964V14.3174C99.1094 13.7651 98.6616 13.3174 98.1094 13.3174Z" fill="url(#paint2_linear_8303_49378)"/>
    </g>
    <path d="M51.5062 57.9237C55.738 57.9237 59.1686 54.509 59.1686 50.2968C59.1686 46.0846 55.738 42.6699 51.5062 42.6699C47.2743 42.6699 43.8438 46.0846 43.8438 50.2968C43.8438 54.509 47.2743 57.9237 51.5062 57.9237Z" stroke="#939DAE" stroke-width="4" stroke-miterlimit="10" stroke-linecap="round" stroke-linejoin="round"/>
    <path d="M39.2002 70.4065C39.2002 63.704 44.7729 58.1572 51.5065 58.1572C58.2401 58.1572 63.8128 63.704 63.8128 70.4065" stroke="#939DAE" stroke-width="4" stroke-miterlimit="10" stroke-linecap="round" stroke-linejoin="round"/>
    <path d="M76.583 48.9092H101.428" stroke="#939DAE" stroke-width="4" stroke-miterlimit="10" stroke-linecap="round" stroke-linejoin="round"/>
    <path d="M76.583 61.3896H86.3352" stroke="#939DAE" stroke-width="4" stroke-miterlimit="10" stroke-linecap="round" stroke-linejoin="round"/>
    <path d="M84.791 97.2465C84.469 98.6088 83.986 100.051 83.4224 101.253C81.8928 104.218 79.4776 106.542 76.4988 108.065C73.4395 109.587 69.8167 110.228 66.1939 109.427C57.6601 107.664 52.1857 99.33 53.9568 90.8358C55.728 82.3416 64.0202 76.8124 72.554 78.6555C75.6132 79.2966 78.27 80.8191 80.5242 82.9026C84.308 86.6689 85.9181 92.118 84.791 97.2465Z" fill="url(#paint3_linear_8303_49378)"/>
    <path d="M74.4042 92.6792H70.7814V89.0732C70.7814 88.352 70.2179 87.7109 69.4128 87.7109C68.6882 87.7109 68.0442 88.2719 68.0442 89.0732V92.6792H64.4214C63.6968 92.6792 63.0527 93.2402 63.0527 94.0415C63.0527 94.8428 63.6163 95.4038 64.4214 95.4038H68.0442V99.0098C68.0442 99.731 68.6077 100.372 69.4128 100.372C70.1374 100.372 70.7814 99.8111 70.7814 99.0098V95.4038H74.4042C75.1288 95.4038 75.7729 94.8428 75.7729 94.0415C75.7729 93.2402 75.1288 92.6792 74.4042 92.6792Z" fill="white"/>
    <g style="mix-blend-mode:color">
        <path d="M69.3836 105.276C97.3415 105.276 120.007 82.7157 120.007 54.788C120.007 26.8604 97.2417 4.29956 69.3836 4.29956C41.4257 4.29956 18.7598 26.8604 18.7598 54.788C18.7598 82.7157 41.4257 105.276 69.3836 105.276Z" fill="#F7E869"/>
        <path d="M116.712 21.692C118.973 21.692 120.806 19.8677 120.806 17.6172C120.806 15.3667 118.973 13.5423 116.712 13.5423C114.451 13.5423 112.619 15.3667 112.619 17.6172C112.619 19.8677 114.451 21.692 116.712 21.692Z" fill="#F7E869"/>
        <path d="M122.704 5.79027C124.248 5.79027 125.5 4.54435 125.5 3.00744C125.5 1.47052 124.248 0.224609 122.704 0.224609C121.16 0.224609 119.908 1.47052 119.908 3.00744C119.908 4.54435 121.16 5.79027 122.704 5.79027Z" fill="#F7E869"/>
        <path d="M21.4561 21.5927C23.0002 21.5927 24.2519 20.3467 24.2519 18.8098C24.2519 17.2729 23.0002 16.027 21.4561 16.027C19.912 16.027 18.6603 17.2729 18.6603 18.8098C18.6603 20.3467 19.912 21.5927 21.4561 21.5927Z" fill="#F7E869"/>
        <path d="M9.69219 81.7496C12.5598 81.7496 14.8844 79.4358 14.8844 76.5815C14.8844 73.7273 12.5598 71.4134 9.69219 71.4134C6.82462 71.4134 4.5 73.7273 4.5 76.5815C4.5 79.4358 6.82462 81.7496 9.69219 81.7496Z" fill="#F7E869"/>
        <path d="M109.786 87.7311H28.9823C25.2672 87.7311 22.2487 84.7266 22.2487 81.0287V29.4895C22.2487 25.7916 25.2672 22.787 28.9823 22.787H109.786C113.501 22.787 116.52 25.7916 116.52 29.4895V81.2598C116.287 84.7266 113.269 87.7311 109.786 87.7311Z" fill="#F7E869"/>
        <path d="M36.957 26.1561C36.957 25.6072 37.4041 25.1622 37.9555 25.1622H49.9516C50.5031 25.1622 50.9501 25.6072 50.9501 26.1561V29.2896C50.9501 29.8385 50.5031 30.2835 49.9516 30.2835H37.9555C37.4041 30.2835 36.957 29.8385 36.957 29.2896V26.1561Z" fill="#F7E869"/>
        <path d="M87.1158 26.1561C87.1158 25.6072 87.5628 25.1622 88.1143 25.1622H100.11C100.662 25.1622 101.109 25.6072 101.109 26.1561V29.2896C101.109 29.8385 100.662 30.2835 100.11 30.2835H88.1143C87.5628 30.2835 87.1158 29.8385 87.1158 29.2896V26.1561Z" fill="#F7E869"/>
        <path d="M47.9516 13.5423H39.9642C39.4128 13.5423 38.9657 13.9873 38.9657 14.5362V26.5275C38.9657 27.0764 39.4128 27.5213 39.9642 27.5213H47.9516C48.503 27.5213 48.9501 27.0764 48.9501 26.5275V14.5362C48.9501 13.9873 48.503 13.5423 47.9516 13.5423Z" fill="#F7E869"/>
        <path d="M98.1105 13.5423H90.1231C89.5716 13.5423 89.1246 13.9873 89.1246 14.5362V26.5275C89.1246 27.0764 89.5716 27.5213 90.1231 27.5213H98.1105C98.6619 27.5213 99.109 27.0764 99.109 26.5275V14.5362C99.109 13.9873 98.6619 13.5423 98.1105 13.5423Z" fill="#F7E869"/>
        <path d="M51.5056 58.1482C55.7374 58.1482 59.168 54.7335 59.168 50.5213C59.168 46.3091 55.7374 42.8944 51.5056 42.8944C47.2737 42.8944 43.8431 46.3091 43.8431 50.5213C43.8431 54.7335 47.2737 58.1482 51.5056 58.1482Z" fill="#F7E869"/>
        <path d="M39.1997 70.6316C39.1997 63.9292 44.7724 58.3823 51.506 58.3823C58.2397 58.3823 63.8123 63.9292 63.8123 70.6316" fill="#F7E869"/>
        <path d="M84.7903 97.4723C84.4683 98.8346 83.9853 100.277 83.4217 101.479C81.8921 104.444 79.4769 106.768 76.4981 108.29C73.4389 109.813 69.816 110.454 66.1932 109.653C57.6595 107.89 52.185 99.5558 53.9561 91.0616C55.7273 82.5675 64.0195 77.0382 72.5533 78.8813C75.6125 79.5224 78.2693 81.0449 80.5235 83.1284C84.3073 86.8947 85.9174 92.3438 84.7903 97.4723Z" fill="#F7E869"/>
        <path d="M74.404 92.9046H70.7812V89.2986C70.7812 88.5774 70.2176 87.9363 69.4126 87.9363C68.688 87.9363 68.044 88.4972 68.044 89.2986V92.9046H64.4211C63.6966 92.9046 63.0525 93.4655 63.0525 94.2669C63.0525 95.0682 63.6161 95.6292 64.4211 95.6292H68.044V99.2352C68.044 99.9564 68.6075 100.597 69.4126 100.597C70.1371 100.597 70.7812 100.037 70.7812 99.2352V95.6292H74.404C75.1286 95.6292 75.7726 95.0682 75.7726 94.2669C75.7726 93.4655 75.1286 92.9046 74.404 92.9046Z" fill="#F7E869"/>
    </g>
    <defs>
        <filter id="filter0_d_8303_49378" x="0.249023" y="11.5625" width="138.271" height="108.944" filterUnits="userSpaceOnUse" color-interpolation-filters="sRGB">
            <feFlood flood-opacity="0" result="BackgroundImageFix"/>
            <feColorMatrix in="SourceAlpha" type="matrix" values="0 0 0 0 0 0 0 0 0 0 0 0 0 0 0 0 0 0 127 0" result="hardAlpha"/>
            <feOffset dy="11"/>
            <feGaussianBlur stdDeviation="11"/>
            <feColorMatrix type="matrix" values="0 0 0 0 0.397708 0 0 0 0 0.47749 0 0 0 0 0.575 0 0 0 0.27 0"/>
            <feBlend mode="normal" in2="BackgroundImageFix" result="effect1_dropShadow_8303_49378"/>
            <feBlend mode="normal" in="SourceGraphic" in2="effect1_dropShadow_8303_49378" result="shape"/>
        </filter>
        <filter id="filter1_d_8303_49378" x="16.9658" y="2.31738" width="53.9844" height="57.9785" filterUnits="userSpaceOnUse" color-interpolation-filters="sRGB">
            <feFlood flood-opacity="0" result="BackgroundImageFix"/>
            <feColorMatrix in="SourceAlpha" type="matrix" values="0 0 0 0 0 0 0 0 0 0 0 0 0 0 0 0 0 0 127 0" result="hardAlpha"/>
            <feOffset dy="11"/>
            <feGaussianBlur stdDeviation="11"/>
            <feColorMatrix type="matrix" values="0 0 0 0 0.397708 0 0 0 0 0.47749 0 0 0 0 0.575 0 0 0 0.27 0"/>
            <feBlend mode="normal" in2="BackgroundImageFix" result="effect1_dropShadow_8303_49378"/>
            <feBlend mode="normal" in="SourceGraphic" in2="effect1_dropShadow_8303_49378" result="shape"/>
        </filter>
        <filter id="filter2_d_8303_49378" x="67.125" y="2.31738" width="53.9844" height="57.9785" filterUnits="userSpaceOnUse" color-interpolation-filters="sRGB">
            <feFlood flood-opacity="0" result="BackgroundImageFix"/>
            <feColorMatrix in="SourceAlpha" type="matrix" values="0 0 0 0 0 0 0 0 0 0 0 0 0 0 0 0 0 0 127 0" result="hardAlpha"/>
            <feOffset dy="11"/>
            <feGaussianBlur stdDeviation="11"/>
            <feColorMatrix type="matrix" values="0 0 0 0 0.397708 0 0 0 0 0.47749 0 0 0 0 0.575 0 0 0 0.27 0"/>
            <feBlend mode="normal" in2="BackgroundImageFix" result="effect1_dropShadow_8303_49378"/>
            <feBlend mode="normal" in="SourceGraphic" in2="effect1_dropShadow_8303_49378" result="shape"/>
        </filter>
        <linearGradient id="paint0_linear_8303_49378" x1="69.3538" y1="21.0603" x2="69.3538" y2="88.2067" gradientUnits="userSpaceOnUse">
            <stop stop-color="#FDFEFF"/>
            <stop offset="0.9964" stop-color="#ECF0F5"/>
        </linearGradient>
        <linearGradient id="paint1_linear_8303_49378" x1="43.9547" y1="12.994" x2="43.9547" y2="27.4471" gradientUnits="userSpaceOnUse">
            <stop stop-color="#FDFEFF"/>
            <stop offset="0.9964" stop-color="#ECF0F5"/>
        </linearGradient>
        <linearGradient id="paint2_linear_8303_49378" x1="94.1139" y1="12.994" x2="94.1139" y2="27.4471" gradientUnits="userSpaceOnUse">
            <stop stop-color="#FDFEFF"/>
            <stop offset="0.9964" stop-color="#ECF0F5"/>
        </linearGradient>
        <linearGradient id="paint3_linear_8303_49378" x1="53.6096" y1="94.0407" x2="85.1499" y2="94.0407" gradientUnits="userSpaceOnUse">
            <stop stop-color="#B0BACC"/>
            <stop offset="1" stop-color="#969EAE"/>
        </linearGradient>
    </defs>
</svg>
