<svg width="16" height="16" viewBox="0 0 16 16" fill="none" xmlns="http://www.w3.org/2000/svg">
<path fill-rule="evenodd" clip-rule="evenodd" d="M1.91666 5.33333C1.91666 3.81455 3.14788 2.58333 4.66666 2.58333H11.3333C12.8521 2.58333 14.0833 3.81455 14.0833 5.33333V12C14.0833 13.5188 12.8521 14.75 11.3333 14.75H4.66667C3.14788 14.75 1.91666 13.5188 1.91666 12V5.33333ZM4.66666 4.08333C3.97631 4.08333 3.41666 4.64298 3.41666 5.33333V12C3.41666 12.6904 3.97631 13.25 4.66667 13.25H11.3333C12.0237 13.25 12.5833 12.6904 12.5833 12V5.33333C12.5833 4.64298 12.0237 4.08333 11.3333 4.08333H4.66666Z" fill="black"/>
<path fill-rule="evenodd" clip-rule="evenodd" d="M10.6667 1.25C11.0809 1.25 11.4167 1.58579 11.4167 2V4.66667C11.4167 5.08088 11.0809 5.41667 10.6667 5.41667C10.2525 5.41667 9.91666 5.08088 9.91666 4.66667V2C9.91666 1.58579 10.2525 1.25 10.6667 1.25Z" fill="black"/>
<path fill-rule="evenodd" clip-rule="evenodd" d="M5.33333 1.25C5.74754 1.25 6.08333 1.58579 6.08333 2V4.66667C6.08333 5.08088 5.74754 5.41667 5.33333 5.41667C4.91911 5.41667 4.58333 5.08088 4.58333 4.66667V2C4.58333 1.58579 4.91911 1.25 5.33333 1.25Z" fill="black"/>
<path fill-rule="evenodd" clip-rule="evenodd" d="M1.91666 7.33333C1.91666 6.91912 2.25245 6.58333 2.66666 6.58333H13.3333C13.7475 6.58333 14.0833 6.91912 14.0833 7.33333C14.0833 7.74755 13.7475 8.08333 13.3333 8.08333H2.66666C2.25245 8.08333 1.91666 7.74755 1.91666 7.33333Z" fill="black"/>
<path fill-rule="evenodd" clip-rule="evenodd" d="M4.58333 10C4.58333 9.58579 4.91911 9.25 5.33333 9.25H6.66666C7.08087 9.25 7.41666 9.58579 7.41666 10V11.3333C7.41666 11.7475 7.08087 12.0833 6.66666 12.0833H5.33333C4.91911 12.0833 4.58333 11.7475 4.58333 11.3333V10Z" fill="black"/>
</svg>
