<svg width="32" height="32" viewBox="0 0 32 32" fill="none" xmlns="http://www.w3.org/2000/svg">
<g clip-path="url(#clip0_10_347)">
<g filter="url(#filter0_d_10_347)">
<g clip-path="url(#clip1_10_347)">
<rect width="32" height="32" rx="16" fill="#F2F2F2"/>
<path d="M16 20C19.2217 20 21.8333 17.3883 21.8333 14.1667C21.8333 10.945 19.2217 8.33333 16 8.33333C12.7783 8.33333 10.1667 10.945 10.1667 14.1667C10.1667 17.3883 12.7783 20 16 20Z" fill="#2C2D33"/>
<path d="M16 22.9167C10.155 22.9167 5.395 26.8367 5.395 31.6667C5.395 31.9933 5.65167 32.25 5.97834 32.25H26.0217C26.3483 32.25 26.605 31.9933 26.605 31.6667C26.605 26.8367 21.845 22.9167 16 22.9167Z" fill="#2C2D33"/>
</g>
<rect x="0.5" y="0.5" width="31" height="31" rx="15.5" stroke="#121C25" stroke-opacity="0.12"/>
</g>
</g>
<defs>
<filter id="filter0_d_10_347" x="-36" y="-28" width="104" height="104" filterUnits="userSpaceOnUse" color-interpolation-filters="sRGB">
<feFlood flood-opacity="0" result="BackgroundImageFix"/>
<feColorMatrix in="SourceAlpha" type="matrix" values="0 0 0 0 0 0 0 0 0 0 0 0 0 0 0 0 0 0 127 0" result="hardAlpha"/>
<feOffset dy="8"/>
<feGaussianBlur stdDeviation="18"/>
<feComposite in2="hardAlpha" operator="out"/>
<feColorMatrix type="matrix" values="0 0 0 0 1 0 0 0 0 1 0 0 0 0 1 0 0 0 0.12 0"/>
<feBlend mode="normal" in2="BackgroundImageFix" result="effect1_dropShadow_10_347"/>
<feBlend mode="normal" in="SourceGraphic" in2="effect1_dropShadow_10_347" result="shape"/>
</filter>
<clipPath id="clip0_10_347">
<rect width="32" height="32" fill="white"/>
</clipPath>
<clipPath id="clip1_10_347">
<rect width="32" height="32" rx="16" fill="white"/>
</clipPath>
</defs>
</svg>
