<svg width="269" height="162" viewBox="0 0 269 162" fill="none" xmlns="http://www.w3.org/2000/svg">
<g clip-path="url(#clip0_741_4423)">
<rect width="269" height="162" fill="white"/>
<line y1="109.5" x2="269" y2="109.5" stroke="#F2F2F2" stroke-dasharray="3 4"/>
<line y1="133.5" x2="269" y2="133.5" stroke="#F2F2F2" stroke-dasharray="3 4"/>
<path d="M271 132L258.206 123.683C256.415 122.518 254.346 121.853 252.212 121.756L246.654 121.502C242.909 121.332 239.341 123.105 237.217 126.194V126.194C236.66 127.004 236.215 127.886 235.895 128.815L233.094 136.962C231.127 142.682 224.828 145.652 219.164 143.53V143.53C215.512 142.162 212.887 138.921 212.308 135.064L206.054 93.4113C205.039 86.6486 198.586 82.1004 191.875 83.4179L175.725 86.5888C174.964 86.7383 174.189 86.8136 173.413 86.8136H143.599C140.482 86.8136 137.488 88.0264 135.249 90.1953L118.528 106.396C116.29 108.564 113.295 109.777 110.178 109.777H94.3915C90.865 109.777 87.517 108.226 85.237 105.536L76.9166 95.7185C73.2127 91.3481 66.3109 91.9102 63.363 96.8223V96.8223C62.839 97.6954 62.1599 98.4656 61.3593 99.0948L10.4198 139.127C8.67344 140.499 6.37238 140.945 4.23982 140.324V140.324C1.65606 139.572 -1.12912 140.394 -2.89077 142.428L-28.5 172" stroke="#828897" stroke-width="3"/>
</g>
<defs>
<clipPath id="clip0_741_4423">
<rect width="269" height="162" fill="white"/>
</clipPath>
</defs>
</svg>
