<svg width="269" height="162" viewBox="0 0 269 162" fill="none" xmlns="http://www.w3.org/2000/svg">
<g clip-path="url(#clip0_741_4430)">
<rect width="269" height="162" fill="white"/>
<line y1="109.5" x2="269" y2="109.5" stroke="#F2F2F2" stroke-dasharray="3 4"/>
<line y1="133.5" x2="269" y2="133.5" stroke="#F2F2F2" stroke-dasharray="3 4"/>
<path d="M267.5 145L254.706 136.683C252.915 135.518 250.846 134.853 248.712 134.756L239.74 134.347C238.118 134.273 236.573 135.041 235.653 136.378V136.378C234.139 138.58 231.096 139.078 228.959 137.474L224.022 133.769C220.924 131.444 219.337 127.618 219.88 123.783L222.695 103.882C224.07 94.1622 213.828 86.9932 205.167 91.6129L202.27 93.1578C201.223 93.7162 200.099 94.1162 198.935 94.3448L172.225 99.5888C171.464 99.7383 170.689 99.8136 169.913 99.8136H140.099C136.982 99.8136 133.988 101.026 131.749 103.195L121.524 113.102C116.263 118.2 107.701 117.434 103.427 111.483L97.8629 103.734C93.3014 97.3824 83.6668 97.9893 79.9385 104.863L71.546 120.337C67.9979 126.879 58.0343 123.917 58.6359 116.499V116.499C58.8912 113.351 56.9713 110.434 53.9792 109.423L12.3415 95.353C4.56217 92.7243 -3.5 98.51 -3.5 106.721V147.616C-3.5 150.502 -4.53974 153.29 -6.4287 155.472L-32 185" stroke="#828897" stroke-width="3"/>
</g>
<defs>
<clipPath id="clip0_741_4430">
<rect width="269" height="162" fill="white"/>
</clipPath>
</defs>
</svg>
