<svg width="600" height="334" viewBox="0 0 600 334" fill="none" xmlns="http://www.w3.org/2000/svg">
<path d="M29.8144 223.024C27.276 220.815 26.9456 216.432 29.571 214.118C32.1442 211.857 36.717 212.622 38.4209 215.597C38.5078 213.597 38.8034 210.935 39.4641 209.039C40.1248 207.143 41.4288 205.386 43.3065 204.656C45.1843 203.925 47.6011 204.552 48.5399 206.308C49.1485 203.647 50.9567 199.472 52.9214 197.576C54.8861 195.68 57.8245 194.637 60.4499 195.402C64.4836 196.602 66.257 201.281 66.8482 205.439C67.4046 209.37 67.4046 213.388 66.8482 217.319C67.7523 214.605 70.6037 214.553 73.2639 215.632C76.0632 216.762 76.7065 219.876 76.4631 222.537C86.5822 223.581 96.6839 220.659 106.82 220.919C108.09 220.954 109.62 221.163 110.141 222.328C110.611 223.389 109.828 224.659 108.785 225.164C99.9526 229.408 87.9905 227.651 78.4452 228.277C66.6743 229.043 54.8861 229.738 43.0979 230.33C34.3176 230.782 25.5199 231.182 16.7396 231.513C15.453 231.565 -0.00386682 233.113 0.500349 230.643C1.57833 225.442 9.68055 225.442 13.8186 224.572C19.0694 223.476 24.6853 224.172 29.797 222.989L29.8144 223.024Z" fill="#EDF0F2"/>
<path d="M284.5 63.5L85 321C85 321 207.055 348.361 296.04 321.713L345 67L284.5 63.5Z" fill="url(#paint0_linear_8463_46231)"/>
<path d="M328.859 200.02V214.375C328.859 220.938 328.195 226.543 326.867 231.191C325.539 235.84 323.625 239.648 321.125 242.617C318.625 245.547 315.637 247.715 312.16 249.121C308.684 250.488 304.816 251.172 300.559 251.172C297.16 251.172 293.996 250.742 291.066 249.883C288.137 248.984 285.5 247.617 283.156 245.781C280.852 243.906 278.859 241.523 277.18 238.633C275.539 235.742 274.27 232.285 273.371 228.262C272.512 224.238 272.082 219.609 272.082 214.375V200.02C272.082 193.457 272.746 187.871 274.074 183.262C275.441 178.652 277.375 174.883 279.875 171.953C282.375 169.023 285.363 166.895 288.84 165.566C292.316 164.199 296.184 163.516 300.441 163.516C303.879 163.516 307.043 163.945 309.934 164.805C312.863 165.664 315.48 167.012 317.785 168.848C320.129 170.645 322.121 172.988 323.762 175.879C325.402 178.73 326.652 182.168 327.512 186.191C328.41 190.176 328.859 194.785 328.859 200.02ZM313.391 216.484V197.852C313.391 194.57 313.195 191.719 312.805 189.297C312.453 186.836 311.926 184.746 311.223 183.027C310.52 181.309 309.641 179.922 308.586 178.867C307.531 177.773 306.32 176.973 304.953 176.465C303.586 175.957 302.082 175.703 300.441 175.703C298.41 175.703 296.594 176.113 294.992 176.934C293.391 177.715 292.043 178.965 290.949 180.684C289.855 182.402 289.016 184.688 288.43 187.539C287.883 190.352 287.609 193.789 287.609 197.852V216.484C287.609 219.766 287.785 222.637 288.137 225.098C288.527 227.559 289.074 229.668 289.777 231.426C290.52 233.184 291.398 234.629 292.414 235.762C293.469 236.855 294.68 237.676 296.047 238.223C297.414 238.73 298.918 238.984 300.559 238.984C302.629 238.984 304.445 238.574 306.008 237.754C307.609 236.934 308.957 235.645 310.051 233.887C311.145 232.09 311.965 229.766 312.512 226.914C313.098 224.023 313.391 220.547 313.391 216.484Z" fill="#1F1F24"/>
<path d="M240.504 200.446L243.659 212.218L184.288 228.127L181.239 219.238L201.404 154.812L213.346 151.612L206.311 176.973L195.736 212.442L240.504 200.446ZM216.685 150.717L238.766 233.123L223.767 237.142L201.687 154.736L216.685 150.717Z" fill="#1F1F24"/>
<path d="M414.751 222.918L408.657 233.472L355.427 202.74L359.556 194.299L419.371 163.001L430.078 169.183L407.17 182.141L374.612 199.744L414.751 222.918ZM433.071 170.911L390.415 244.794L376.968 237.031L419.624 163.148L433.071 170.911Z" fill="#1F1F24"/>
<path d="M421.52 57.64C415.087 67.2242 395.405 73.26 366.473 73.4513C335.873 73.6601 289 68.4515 258.832 62.5104C243.375 59.4664 229.309 52.0391 219.973 40.6807C285.103 51.152 355.555 57.7792 421.52 57.64Z" fill="#EDF0F2"/>
<path d="M422.91 55.1524C422.024 32.5225 222.997 15.1457 219.398 38.9584C219.746 58.0224 421.85 74.7035 422.91 55.1524Z" fill="#989FB0"/>
<path d="M366.109 44.1592C364.631 22.5208 346.253 3.24805 324.694 0.760682C303.152 -1.72669 280.862 12.8496 274.516 33.6009C287.208 52.004 351.365 58.8399 366.109 44.1592Z" fill="#EDF0F2"/>
<path d="M356.723 32.4966C354.271 25.939 350.203 20.1989 345.004 15.5373C340.431 11.4323 333.216 6.56187 326.8 7.03152C324.853 7.17067 324.401 9.91895 325.861 10.9626C328.174 12.6151 331.043 13.5369 333.546 14.8241C336.172 16.1635 338.554 17.9899 340.779 19.9206C345.456 23.9735 348.951 29.2439 351.124 35.0188C352.515 38.7237 358.096 36.2016 356.705 32.4966H356.723Z" fill="#F2F2F2"/>
<path d="M359.658 43.0289C359.606 41.9852 359.258 40.9764 358.962 40.0371C358.719 39.2195 358.458 38.489 357.745 37.9498C357.189 37.5323 356.302 37.341 355.642 37.6367C354.268 38.2455 354.025 39.4805 354.077 40.8372C354.112 41.7939 354.111 42.8897 354.39 43.8986C354.772 45.2901 355.902 46.3512 357.45 46.0902C358.997 45.8293 359.727 44.4726 359.64 43.0289H359.658Z" fill="#F2F2F2"/>
<path d="M258.346 50.2476C253.687 50.2476 253.687 57.4835 258.346 57.4835C263.006 57.4835 263.006 50.2476 258.346 50.2476Z" fill="white"/>
<path d="M281.523 53.9175C277.107 53.9175 277.107 60.7708 281.523 60.7708C285.939 60.7708 285.939 53.9175 281.523 53.9175Z" fill="white"/>
<path d="M301.814 57.0137C296.911 57.0137 296.911 64.6323 301.814 64.6323C306.717 64.6323 306.717 57.0137 301.814 57.0137Z" fill="white"/>
<path d="M324.988 58.8926C320.259 58.8926 320.259 66.2329 324.988 66.2329C329.718 66.2329 329.718 58.8926 324.988 58.8926Z" fill="white"/>
<path d="M352.043 63.1016C352.025 63.0146 351.991 62.9276 351.973 62.8233C351.191 59.6227 346.305 59.6227 345.523 62.8233C345.505 62.9102 345.47 62.9972 345.453 63.1016C344.931 65.241 346.479 67.4153 348.739 67.4153C350.999 67.4153 352.547 65.241 352.025 63.1016H352.043Z" fill="white"/>
<path d="M370.786 60.6494C366.092 60.6494 366.092 67.9376 370.786 67.9376C375.481 67.9376 375.481 60.6494 370.786 60.6494Z" fill="white"/>
<path d="M393.963 61.2578C390.033 61.2578 390.033 67.3458 393.963 67.3458C397.892 67.3458 397.892 61.2578 393.963 61.2578Z" fill="white"/>
<path d="M411.35 57.3789C407.664 57.3789 407.664 63.0842 411.35 63.0842C415.036 63.0842 415.036 57.3789 411.35 57.3789Z" fill="#F2F2F2"/>
<path d="M102.965 14.5658C99.5396 12.5133 95.8188 11.3479 92.0807 11C97.4706 19.0883 98.0965 29.8901 92.7761 38.7959C87.4558 47.7017 77.667 52.2764 68 51.3719C70.0864 54.4855 72.8683 57.2164 76.2935 59.2515C88.6207 66.6092 104.599 62.5912 111.954 50.2413C119.308 37.8914 115.292 21.9236 102.947 14.5658H102.965Z" fill="#F2F2F2"/>
<path d="M464.274 172.511C461.266 172.076 458.241 171.554 455.198 170.894C454.155 170.667 453.008 170.337 452.486 169.415C451.912 168.389 452.416 167.015 453.321 166.267C454.225 165.519 455.424 165.206 456.572 164.945C459.858 164.197 501.082 158.3 501.204 159.048C500.56 155.047 498.804 149.76 502.821 146.698C505.689 144.507 510.523 145.881 511.81 149.238C511.601 144.941 514.87 139.288 517.547 135.949C520.242 132.592 524.954 130.696 529.005 132.104C533.056 133.513 535.629 138.697 533.578 142.471C531.526 136.436 539.124 128.452 545.001 125.999C550.878 123.547 558.093 125.512 562.509 130.104C566.926 134.696 568.647 141.497 567.812 147.811C567.065 153.465 564.144 158.474 561.379 163.292C568.942 164.91 576.714 164.266 584.364 164.858C589.511 165.258 595.092 166.458 598.517 170.059C590.259 174.285 579.461 172.476 570.316 172.668C549.487 173.103 528.727 173.346 508.019 173.833C493.084 174.198 478.809 174.581 464.274 172.511Z" fill="#EDF0F2"/>
<defs>
<linearGradient id="paint0_linear_8463_46231" x1="321.5" y1="70.5" x2="195.5" y2="338" gradientUnits="userSpaceOnUse">
<stop stop-color="#EDF0F2"/>
<stop offset="1" stop-color="#EDF0F2" stop-opacity="0"/>
</linearGradient>
</defs>
</svg>
