<svg

        xmlns="http://www.w3.org/2000/svg"
        width="16"
        height="16"
        viewBox="0 0 16 16"
        fill="none"
>
    <path
            d="M4.18185 6.90904H11.8181C11.9658 6.90904 12.0937 6.8551 12.2016 6.74713C12.3095 6.63919 12.3636 6.51137 12.3636 6.36363C12.3636 6.2159 12.3095 6.08814 12.2016 5.98005L8.38348 2.16191C8.2756 2.05409 8.14781 2 7.99999 2C7.85217 2 7.72437 2.05409 7.6164 2.16191L3.79826 5.98005C3.69029 6.08802 3.63635 6.2159 3.63635 6.36363C3.63635 6.51134 3.69029 6.63919 3.79826 6.74713C3.90635 6.8551 4.03415 6.90904 4.18185 6.90904Z"
            fill="#9096A7"
    />
    <path
            d="M11.8182 9.09082H4.18191C4.03409 9.09082 3.9063 9.14479 3.79832 9.25264C3.69035 9.36061 3.63641 9.4884 3.63641 9.63614C3.63641 9.78387 3.69035 9.91175 3.79832 10.0197L7.61646 13.8377C7.72455 13.9457 7.85234 13.9998 8.00005 13.9998C8.14775 13.9998 8.27566 13.9457 8.38354 13.8377L12.2017 10.0196C12.3095 9.91175 12.3637 9.78387 12.3637 9.63611C12.3637 9.4884 12.3096 9.36061 12.2017 9.25261C12.0938 9.14467 11.9659 9.09082 11.8182 9.09082Z"
            fill="#9096A7"
    />
</svg>