<svg width="140" height="126" viewBox="0 0 140 126" fill="none" xmlns="http://www.w3.org/2000/svg">
    <path d="M69.4995 112.609C97.3833 112.609 119.952 90.2487 119.952 62.6604C119.952 35.072 97.3833 12.7922 69.4995 12.7922C41.6974 12.7922 19.0469 35.1525 19.0469 62.7408C19.0469 90.3292 41.6974 112.609 69.4995 112.609Z" fill="#F2F2F2"/>
    <g filter="url(#filter0_d_8361_92056)">
        <path d="M117.832 33.6297V90.4551C117.832 91.9158 116.535 92.9591 115.076 92.9591H25.588C24.0479 92.9591 22.832 91.8462 22.832 90.4551V33.6297C22.832 32.3081 24.129 31.1257 25.588 31.1257H114.914C116.616 31.1953 117.832 32.3081 117.832 33.6297Z" fill="url(#paint0_linear_8361_92056)"/>
    </g>
    <rect x="25.5" y="34.0002" width="90" height="56" rx="1" fill="white"/>
    <rect opacity="0.2" x="97.2188" y="55.5298" width="15" height="15" rx="2" fill="#F7E869"/>
    <rect opacity="0.2" x="78.8828" y="55.5298" width="15" height="15" rx="2" fill="#F7E869"/>
    <rect opacity="0.2" x="46.3828" y="55.5298" width="15" height="15" rx="2" fill="#F7E869"/>
    <rect opacity="0.2" x="28.0508" y="55.5298" width="15" height="15" rx="2" fill="#F7E869"/>
    <rect x="47" y="76.1255" width="44.1667" height="8.33333" rx="2" fill="#FEF5F5"/>
    <path d="M91.1667 62.3756C91.1667 65.225 90.6918 67.837 89.6232 70.3303C87.2487 76.5042 82.1434 81.2533 75.8508 83.3904C73.7137 84.1027 71.4579 84.4589 69.0833 84.4589C56.8544 84.4589 47 74.6045 47 62.3756C47 50.1466 56.8544 40.2922 69.0833 40.2922C81.3123 40.2922 91.1667 50.2654 91.1667 62.3756Z" fill="#E62E30"/>
    <path d="M69.5223 65.8923C69.5223 66.3663 69.138 66.7506 68.664 66.7506C68.19 66.7506 67.8057 66.3663 67.8057 65.8923C67.8057 65.4182 68.19 65.0339 68.664 65.0339C69.138 65.0339 69.5223 65.4182 69.5223 65.8923Z" fill="white" stroke="white"/>
    <path d="M73.3972 60.734V61.1754L73.8352 61.2301C74.9289 61.3668 75.5414 61.6968 75.9116 62.2296C76.3033 62.7937 76.4972 63.6844 76.4972 65.1173V66.6673C76.4972 68.3581 76.2313 69.2886 75.6958 69.8242C75.1602 70.3597 74.2296 70.6257 72.5389 70.6257H64.7889C63.0982 70.6257 62.1676 70.3597 61.632 69.8242C61.0965 69.2886 60.8306 68.3581 60.8306 66.6673V65.1173C60.8306 63.6844 61.0245 62.7937 61.4162 62.2296C61.7864 61.6968 62.3989 61.3668 63.4926 61.2301L63.9306 61.1754V60.734V59.6923C63.9306 58.5884 64.0683 57.4138 64.6969 56.5194C65.3 55.6613 66.4316 54.959 68.6639 54.959C70.8962 54.959 72.0278 55.6613 72.6309 56.5194C73.2595 57.4138 73.3972 58.5884 73.3972 59.6923V60.734ZM64.0972 60.659V61.159H64.2889V61.1673H64.7889H72.5389H72.5393H72.5397H72.5401H72.5405H72.5409H72.5412H72.5416H72.542H72.5424H72.5428H72.5432H72.5436H72.544H72.5444H72.5447H72.5451H72.5455H72.5459H72.5463H72.5467H72.5471H72.5474H72.5478H72.5482H72.5486H72.549H72.5494H72.5498H72.5502H72.5505H72.5509H72.5513H72.5517H72.5521H72.5525H72.5528H72.5532H72.5536H72.554H72.5544H72.5548H72.5551H72.5555H72.5559H72.5563H72.5567H72.5571H72.5574H72.5578H72.5582H72.5586H72.559H72.5594H72.5597H72.5601H72.5605H72.5609H72.5613H72.5616H72.562H72.5624H72.5628H72.5632H72.5635H72.5639H72.5643H72.5647H72.5651H72.5654H72.5658H72.5662H72.5666H72.567H72.5673H72.5677H72.5681H72.5685H72.5688H72.5692H72.5696H72.57H72.5704H72.5707H72.5711H72.5715H72.5719H72.5722H72.5726H72.573H72.5734H72.5738H72.5741H72.5745H72.5749H72.5753H72.5756H72.576H72.5764H72.5768H72.5771H72.5775H72.5779H72.5783H72.5786H72.579H72.5794H72.5798H72.5801H72.5805H72.5809H72.5813H72.5816H72.582H72.5824H72.5827H72.5831H72.5835H72.5839H72.5842H72.5846H72.585H72.5854H72.5857H72.5861H72.5865H72.5869H72.5872H72.5876H72.588H72.5883H72.5887H72.5891H72.5895H72.5898H72.5902H72.5906H72.5909H72.5913H72.5917H72.5921H72.5924H72.5928H72.5932H72.5935H72.5939H72.5943H72.5947H72.595H72.5954H72.5958H72.5961H72.5965H72.5969H72.5972H72.5976H72.598H72.5984H72.5987H72.5991H72.5995H72.5998H72.6002H72.6006H72.6009H72.6013H72.6017H72.6021H72.6024H72.6028H72.6032H72.6035H72.6039H72.6043H72.6046H72.605H72.6054H72.6057H72.6061H72.6065H72.6068H72.6072H72.6076H72.608H72.6083H72.6087H72.6091H72.6094H72.6098H72.6102H72.6105H72.6109H72.6113H72.6116H72.612H72.6124H72.6127H72.6131H72.6135H72.6138H72.6142H72.6146H72.6149H72.6153H72.6157H72.616H72.6164H72.6168H72.6171H72.6175H72.6179H72.6182H72.6186H72.619H72.6193H72.6197H72.6201H72.6204H72.6208H72.6212H72.6215H72.6219H72.6223H72.6226H72.623H72.6234H72.6237H72.6241H72.6245H72.6248H72.6252H72.6256H72.6259H72.6263H72.6267H72.627H72.6274H72.6278H72.6281H72.6285H72.6289H72.6292H72.6296H72.63H72.6303H72.6307H72.6311H72.6314H72.6318H72.6322H72.6325H72.6329H72.6333H72.6336H72.634H72.6344H72.6347H72.6351H72.6355H72.6358H72.6362H72.6366H72.6369H72.6373H72.6377H72.638H72.6384H72.6388H72.6391H72.6395H72.6399H72.6402H72.6406H72.641H72.6413H72.6417H72.6421H72.6424H72.6428H72.6432H72.6435H72.6439H72.6443H72.6446H72.645H72.6454H72.6457H72.6461H72.6465H72.6468H72.6472H72.6476H72.6479H72.6483H72.6487H72.649H72.6494H72.6498H72.6501H72.6505H72.6509H72.6512H72.6516H72.652H72.6523H72.6527H72.6531H72.6534H72.6538H72.6542H72.6545H72.6549H72.6553H72.6556H72.656H72.6564H72.6567H72.6571H72.6575H72.6578H72.6582H72.6586H72.6589H72.6593H72.6597H72.66H72.6604H72.6608H72.6611H72.6615H72.6619H72.6623H72.6626H72.663H72.6634H72.6637H72.6641H72.6645H72.6648H72.6652H72.6656H72.6659H72.6663H72.6667H72.667H72.6674H72.6678H72.6682H72.6685H72.6689H72.6693H72.6696H72.67H72.6704H72.6707H72.6711H72.6715H72.6718H72.6722H72.6726H72.673H72.6733H72.6737H72.6741H72.6744H72.6748H72.6752H72.6756H72.6759H72.6763H72.6767H72.677H72.6774H72.6778H72.6782H72.6785H72.6789H72.6793H72.6796H72.68H72.6804H72.6808H72.6811H72.6815H72.6819H72.6822H72.6826H72.683H72.6834H72.6837H72.6841H72.6845H72.6848H72.6852H72.6856H72.686H72.6863H72.6867H72.6871H72.6875H72.6878H72.6882H72.6886H72.689H72.6893H72.6897H72.6901H72.6905H72.6908H72.6912H72.6916H72.692H72.6923H72.6927H72.6931H72.6935H72.6938H72.6942H72.6946H72.695H72.6953H72.6957H72.6961H72.6965H72.6968H72.6972H72.6976H72.698H72.6984H72.6987H72.6991H72.6995H72.6999H72.7002H72.7006H72.701H72.7014H72.7018H72.7021H72.7025H72.7029H72.7033H72.7036H72.704H72.7044H72.7048H72.7052H72.7055H72.7059H72.7063H72.7067H72.7071H72.7074H72.7078H72.7082H72.7086H72.709H72.7093H72.7097H72.7101H72.7105H72.7109H72.7113H72.7116H72.712H72.7124H72.7128H72.7132H72.7136H72.7139H72.7143H72.7147H72.7151H72.7155H72.7159H72.7162H72.7166H72.717H72.7174H72.7178H72.7182H72.7185H72.7189H72.7193H72.7197H72.7201H72.7205H72.7209H72.7212H72.7216H72.722H72.7224H72.7228H72.7232H72.7236H72.724H72.7243H72.7247H72.7251H72.7255H72.7259H72.7263H72.7267H72.7271H72.7274H72.7278H72.7282H72.7286H72.729H72.7294H72.7298H72.7302H72.7306H73.2306V60.6673V59.6923C73.2306 58.4488 73.0605 57.2767 72.3465 56.4227C71.6154 55.5482 70.4202 55.1257 68.6639 55.1257C66.9076 55.1257 65.7124 55.5482 64.9813 56.4227C64.2673 57.2767 64.0972 58.4488 64.0972 59.6923V60.659ZM65.6472 65.8923C65.6472 67.5507 66.995 68.909 68.6639 68.909C70.3317 68.909 71.6806 67.5601 71.6806 65.8923C71.6806 64.2328 70.3234 62.8757 68.6639 62.8757C67.0055 62.8757 65.6472 64.2234 65.6472 65.8923Z" fill="white" stroke="white"/>
    <defs>
        <filter id="filter0_d_8361_92056" x="0.832031" y="20.1257" width="139" height="105.833" filterUnits="userSpaceOnUse" color-interpolation-filters="sRGB">
            <feFlood flood-opacity="0" result="BackgroundImageFix"/>
            <feColorMatrix in="SourceAlpha" type="matrix" values="0 0 0 0 0 0 0 0 0 0 0 0 0 0 0 0 0 0 127 0" result="hardAlpha"/>
            <feOffset dy="11"/>
            <feGaussianBlur stdDeviation="11"/>
            <feColorMatrix type="matrix" values="0 0 0 0 0.397708 0 0 0 0 0.47749 0 0 0 0 0.575 0 0 0 0.27 0"/>
            <feBlend mode="normal" in2="BackgroundImageFix" result="effect1_dropShadow_8361_92056"/>
            <feBlend mode="normal" in="SourceGraphic" in2="effect1_dropShadow_8361_92056" result="shape"/>
        </filter>
        <linearGradient id="paint0_linear_8361_92056" x1="70.3011" y1="-47.9998" x2="70.3011" y2="137" gradientUnits="userSpaceOnUse">
            <stop stop-color="#C6CFD7"/>
            <stop offset="0.9964" stop-color="white"/>
        </linearGradient>
    </defs>
</svg>
