<svg width="28" height="28" viewBox="0 0 28 28" fill="none" xmlns="http://www.w3.org/2000/svg">
    <path d="M26.8249 8.24901L23.9663 6.53872L23.3223 3.8727C23.0363 2.6903 21.9412 1.90204 20.7404 1.99654L17.4695 2.24969L15.5958 0.590687C14.6729 -0.196759 13.3303 -0.196759 12.4043 0.589866L10.5305 2.24963L7.25967 1.99648C6.07246 1.91319 4.96296 2.69101 4.70741 3.77569C4.65452 3.94008 3.6993 6.90933 3.76131 6.71645L1.17558 8.24814C0.139796 8.88421 -0.275173 10.1611 0.188632 11.2843L1.30453 13.9887L0.189452 16.6924C-0.275173 17.8164 0.140562 19.0925 1.17558 19.7278L4.03125 21.4261L4.67771 24.1041C4.96209 25.2857 6.05239 26.07 7.25962 25.9803L10.4952 25.7304L12.4042 27.4088C12.8665 27.8029 13.4329 28 14 28C14.5664 28 15.1336 27.8029 15.5958 27.4088L17.5048 25.7303L20.7404 25.9802C21.9628 26.0771 23.0379 25.2865 23.3223 24.1041L23.9663 21.4381L26.8249 19.7278C27.8591 19.0925 28.2741 17.8164 27.811 16.6924L26.6951 13.9888L27.8118 11.2835C28.2749 10.1612 27.8599 8.88426 26.8249 8.24901ZM14 23.0234C9.02449 23.0234 4.97658 18.9755 4.97658 14C4.97658 9.02448 9.02449 4.97657 14 4.97657C18.9755 4.97657 23.0235 9.02448 23.0235 14C23.0235 18.9755 18.9755 23.0234 14 23.0234Z" fill="url(#paint0_linear_687_3627)"/>
    <path d="M14 6.61719C9.9289 6.61719 6.61719 9.9289 6.61719 14C6.61719 18.0711 9.9289 21.3828 14 21.3828C18.0711 21.3828 21.3828 18.0711 21.3828 14C21.3828 9.9289 18.0711 6.61719 14 6.61719ZM18.6815 12.119L13.7596 17.0409C13.5994 17.2011 13.3895 17.2812 13.1797 17.2812C12.9699 17.2812 12.7599 17.2011 12.5997 17.0409L9.31848 13.7596C8.99806 13.4392 8.99806 12.9201 9.31848 12.5997C9.63889 12.2793 10.158 12.2793 10.4785 12.5997L13.1797 15.301L17.5216 10.959C17.842 10.6386 18.3612 10.6386 18.6816 10.959C19.002 11.2795 19.002 11.7986 18.6815 12.119Z" fill="url(#paint1_linear_687_3627)"/>
    <defs>
        <linearGradient id="paint0_linear_687_3627" x1="-6.3" y1="9.8" x2="32.2" y2="18.9" gradientUnits="userSpaceOnUse">
            <stop offset="0.160377" stop-color="#DFBD40"/>
            <stop offset="0.491793" stop-color="#FFE689"/>
            <stop offset="0.83555" stop-color="#DFBD40"/>
        </linearGradient>
        <linearGradient id="paint1_linear_687_3627" x1="3.29492" y1="11.7852" x2="23.5976" y2="16.584" gradientUnits="userSpaceOnUse">
            <stop offset="0.160377" stop-color="#DFBD40"/>
            <stop offset="0.491793" stop-color="#FFE689"/>
            <stop offset="0.83555" stop-color="#DFBD40"/>
        </linearGradient>
    </defs>
</svg>
