<svg width="14" height="16" viewBox="0 0 14 16" fill="none" xmlns="http://www.w3.org/2000/svg">
<g id="uzcard-logo">
<path id="Path 17" fill-rule="evenodd" clip-rule="evenodd" d="M14 8.54286C14 11.063 13.4196 12.9409 12.2594 14.1647C11.0992 15.3885 9.30702 16 6.8905 16C4.63291 16 2.91973 15.3881 1.75197 14.1647C0.583877 12.9412 0 11.096 0 8.62901V0.352235C0.00068651 0.158144 0.158927 0.0011693 0.354239 0.000488281H4.4479C4.64355 0.0011693 4.8018 0.158144 4.80248 0.352235V8.80982C4.80248 9.81704 4.99024 10.5924 5.37263 11.1392C6.06085 12.0443 7.35836 12.2244 8.27073 11.5417C8.40769 11.4392 8.53126 11.3204 8.63836 11.1876C9.01216 10.6744 9.19821 9.91818 9.19718 8.91878V7.33507H14V8.54252V8.54286Z" fill="#203E7A"/>
<path id="Path 18" fill-rule="evenodd" clip-rule="evenodd" d="M13.6283 6.41024H9.19727V0.368579C9.19795 0.165295 9.36374 0.000828791 9.56832 0.000488281H10.2315C10.2329 2.0633 11.9189 3.73486 13.9984 3.73486H13.9994V6.41024H13.628H13.6283Z" fill="#203E7A"/>
<path id="Path 19" fill-rule="evenodd" clip-rule="evenodd" d="M11.1761 0.00034051H13.629C13.8339 0.00102153 13.9997 0.165488 14.0001 0.368432V2.80478C12.4403 2.80478 11.1758 1.55034 11.1758 0.00306459V0L11.1761 0.00034051Z" fill="#F4821F"/>
</g>
</svg>
