<svg width="280" height="60" viewBox="0 0 280 60" fill="none" xmlns="http://www.w3.org/2000/svg">
    <path d="M63.9342 39.5083C63.695 38.3122 63.5754 37.0963 63.5754 35.8604C63.5754 34.6245 63.695 33.4086 63.9342 32.2125C64.1735 31.0165 64.5721 29.96 65.1303 29.0431C65.7283 28.1261 66.5057 27.3886 67.4625 26.8305C68.4193 26.2324 69.6153 25.9334 71.0506 25.9334C72.4858 25.9334 73.6818 26.2324 74.6386 26.8305C75.6353 27.3886 76.4127 28.1261 76.9709 29.0431C77.5689 29.96 77.9875 31.0165 78.2267 32.2125C78.4659 33.4086 78.5855 34.6245 78.5855 35.8604C78.5855 37.0963 78.4659 38.3122 78.2267 39.5083C77.9875 40.6644 77.5689 41.7209 76.9709 42.6777C76.4127 43.5947 75.6353 44.3322 74.6386 44.8904C73.6818 45.4485 72.4858 45.7276 71.0506 45.7276C69.6153 45.7276 68.4193 45.4485 67.4625 44.8904C66.5057 44.3322 65.7283 43.5947 65.1303 42.6777C64.5721 41.7209 64.1735 40.6644 63.9342 39.5083Z" fill="#FAE74D"/>
    <path fill-rule="evenodd" clip-rule="evenodd" d="M2.37041 8.19583C0.734375 11.4067 0.734375 15.61 0.734375 24.0167V35.9833C0.734375 44.39 0.734375 48.5933 2.37041 51.8042C3.80951 54.6286 6.10581 56.9249 8.93021 58.364C12.1411 60 16.3444 60 24.751 60H74.5862C79.7625 60 82.3507 60 84.6559 59.2338C86.6951 58.556 88.5651 57.4483 90.1393 55.9855C91.9188 54.3319 93.1623 52.062 95.6493 47.5222L98.9271 41.5389C101.236 37.3246 102.39 35.2175 102.843 32.989C103.244 31.0165 103.244 28.9835 102.843 27.011C102.39 24.7825 101.236 22.6754 98.9271 18.4611L95.6493 12.4778C93.1623 7.93802 91.9188 5.66814 90.1393 4.01455C88.5651 2.55174 86.6951 1.44399 84.6559 0.766193C82.3507 0 79.7625 0 74.5862 0H24.7511C16.3444 0 12.1411 0 8.93021 1.63604C6.10581 3.07514 3.80951 5.37144 2.37041 8.19583ZM36.8567 50.9887C38.8899 50.1117 40.7437 48.5967 42.4182 46.4439L43.375 51.2878H49.3551V28.2046H31.4148V35.2013H40.8633C40.5843 38.1913 39.5876 40.4837 37.8733 42.0784C36.1989 43.6332 33.8068 44.4106 30.6972 44.4106C28.5842 44.4106 26.7902 44.012 25.3151 43.2146C23.84 42.3774 22.644 41.2811 21.727 39.9256C20.8101 38.5701 20.1323 37.0551 19.6938 35.3807C19.2951 33.6664 19.0958 31.9122 19.0958 30.1182C19.0958 28.2444 19.2951 26.4305 19.6938 24.6763C20.1323 22.9222 20.8101 21.3673 21.727 20.0118C22.644 18.6165 23.84 17.5201 25.3151 16.7228C26.7902 15.8856 28.5842 15.467 30.6972 15.467C32.9696 15.467 34.9032 16.065 36.4979 17.261C38.0926 18.457 39.169 20.251 39.7271 22.6431H48.6973C48.4581 20.2112 47.8003 18.0583 46.7238 16.1846C45.6474 14.3108 44.272 12.7361 42.5976 11.4603C40.963 10.1846 39.1092 9.22773 37.0361 8.58986C35.0028 7.91211 32.8899 7.57324 30.6972 7.57324C27.4281 7.57324 24.4779 8.15132 21.8466 9.30747C19.2553 10.4636 17.0626 12.0583 15.2685 14.0915C13.4745 16.1248 12.0991 18.5168 11.1423 21.2677C10.1854 23.9786 9.70703 26.9288 9.70703 30.1182C9.70703 33.2279 10.1854 36.1382 11.1423 38.8492C12.0991 41.5203 13.4745 43.8525 15.2685 45.8459C17.0626 47.8392 19.2553 49.414 21.8466 50.5701C24.4779 51.6864 27.4281 52.2446 30.6972 52.2446C32.7703 52.2446 34.8234 51.826 36.8567 50.9887ZM56.2199 29.1627C55.4624 31.1561 55.0837 33.3886 55.0837 35.8604C55.0837 38.3322 55.4624 40.5648 56.2199 42.5581C56.9774 44.5515 58.0538 46.2658 59.4492 47.701C60.8445 49.0964 62.519 50.1728 64.4725 50.9302C66.426 51.6877 68.6187 52.0665 71.0506 52.0665C73.4825 52.0665 75.6752 51.6877 77.6287 50.9302C79.622 50.1728 81.3164 49.0964 82.7118 47.701C84.1071 46.2658 85.1835 44.5515 85.941 42.5581C86.6985 40.5648 87.0772 38.3322 87.0772 35.8604C87.0772 33.3886 86.6985 31.1561 85.941 29.1627C85.1835 27.1295 84.1071 25.4152 82.7118 24.0198C81.3164 22.5846 79.622 21.4882 77.6287 20.7308C75.6752 19.9334 73.4825 19.5347 71.0506 19.5347C68.6187 19.5347 66.426 19.9334 64.4725 20.7308C62.519 21.4882 60.8445 22.5846 59.4492 24.0198C58.0538 25.4152 56.9774 27.1295 56.2199 29.1627Z" fill="#FAE74D"/>
    <path d="M273.009 20.0123H279.228V25.6934H273.009V41.0025C273.009 42.4377 273.248 43.3945 273.726 43.8729C274.205 44.3513 275.161 44.5905 276.597 44.5905C277.075 44.5905 277.534 44.5706 277.972 44.5307C278.411 44.4909 278.829 44.431 279.228 44.3513V50.9294C278.51 51.049 277.713 51.1288 276.836 51.1686C275.959 51.2085 275.102 51.2284 274.264 51.2284C272.949 51.2284 271.693 51.1288 270.497 50.9294C269.341 50.77 268.304 50.4311 267.387 49.9128C266.51 49.3945 265.813 48.657 265.294 47.7002C264.776 46.7434 264.517 45.4875 264.517 43.9327V25.6934H259.374V20.0123H264.517V10.7432H273.009V20.0123Z" fill="white"/>
    <path d="M236.702 40.8845C236.702 41.8015 236.882 42.5988 237.24 43.2766C237.639 43.9144 238.137 44.4526 238.736 44.8912C239.334 45.2899 240.011 45.5889 240.769 45.7882C241.566 45.9875 242.383 46.0872 243.221 46.0872C243.819 46.0872 244.437 46.0274 245.074 45.9078C245.752 45.7483 246.35 45.5291 246.868 45.25C247.427 44.931 247.885 44.5324 248.244 44.054C248.603 43.5357 248.782 42.8978 248.782 42.1403C248.782 40.8646 247.925 39.9078 246.211 39.2699C244.536 38.632 242.184 37.9941 239.154 37.3563C237.918 37.0772 236.702 36.7582 235.506 36.3994C234.35 36.0008 233.314 35.5024 232.397 34.9044C231.48 34.2665 230.742 33.4891 230.184 32.5722C229.626 31.6154 229.347 30.4592 229.347 29.1037C229.347 27.1104 229.725 25.4758 230.483 24.2C231.28 22.9243 232.317 21.9276 233.593 21.21C234.868 20.4525 236.304 19.9342 237.898 19.6552C239.493 19.3362 241.128 19.1768 242.802 19.1768C244.476 19.1768 246.091 19.3362 247.646 19.6552C249.241 19.9741 250.656 20.5123 251.892 21.2698C253.128 22.0273 254.144 23.0439 254.942 24.3196C255.779 25.5555 256.277 27.1303 256.437 29.0439H248.363C248.244 27.4094 247.626 26.313 246.51 25.7549C245.393 25.1569 244.078 24.8579 242.563 24.8579C242.084 24.8579 241.566 24.8977 241.008 24.9775C240.45 25.0173 239.932 25.1369 239.453 25.3363C239.015 25.5356 238.636 25.8346 238.317 26.2333C237.998 26.5921 237.838 27.0904 237.838 27.7283C237.838 28.4858 238.118 29.1037 238.676 29.5821C239.234 30.0605 239.951 30.4592 240.829 30.7782C241.745 31.0572 242.782 31.3164 243.938 31.5556C245.094 31.7948 246.27 32.0539 247.466 32.333C248.702 32.612 249.898 32.9509 251.055 33.3496C252.251 33.7483 253.307 34.2865 254.224 34.9642C255.141 35.6021 255.878 36.4194 256.437 37.4161C256.995 38.3729 257.274 39.5689 257.274 41.0041C257.274 43.0374 256.855 44.7516 256.018 46.147C255.221 47.5025 254.164 48.5988 252.849 49.4361C251.533 50.2733 250.018 50.8513 248.304 51.1703C246.629 51.5291 244.915 51.7085 243.161 51.7085C241.367 51.7085 239.613 51.5291 237.898 51.1703C236.184 50.8115 234.649 50.2135 233.294 49.3763C231.978 48.539 230.882 47.4427 230.005 46.0872C229.167 44.6918 228.709 42.9576 228.629 40.8845H236.702Z" fill="white"/>
    <path d="M216.59 32.1536C216.192 30.0007 215.474 28.3662 214.438 27.2499C213.441 26.1336 211.906 25.5755 209.833 25.5755C208.477 25.5755 207.341 25.8147 206.424 26.2931C205.547 26.7316 204.83 27.2898 204.271 27.9675C203.753 28.6452 203.374 29.3629 203.135 30.1203C202.936 30.8778 202.816 31.5556 202.776 32.1536H216.59ZM202.776 37.5357C202.896 40.2865 203.594 42.2799 204.869 43.5158C206.145 44.7516 207.979 45.3696 210.371 45.3696C212.085 45.3696 213.561 44.951 214.796 44.1138C216.032 43.2367 216.79 42.3197 217.069 41.3629H224.544C223.348 45.0706 221.514 47.7218 219.042 49.3165C216.571 50.9111 213.58 51.7085 210.072 51.7085C207.64 51.7085 205.448 51.3298 203.494 50.5723C201.541 49.7749 199.886 48.6586 198.531 47.2234C197.175 45.7882 196.119 44.0739 195.361 42.0805C194.643 40.0872 194.285 37.8945 194.285 35.5024C194.285 33.1901 194.663 31.0373 195.421 29.0439C196.178 27.0506 197.255 25.3363 198.65 23.901C200.045 22.4259 201.7 21.2698 203.614 20.4326C205.567 19.5954 207.72 19.1768 210.072 19.1768C212.703 19.1768 214.996 19.695 216.949 20.7316C218.903 21.7283 220.497 23.0838 221.733 24.7981C223.009 26.5123 223.926 28.4658 224.484 30.6585C225.042 32.8512 225.242 35.1436 225.082 37.5357H202.776Z" fill="white"/>
    <path d="M181.815 50.9308H172.367L161.782 20.0137H170.692L177.211 41.1234H177.33L183.849 20.0137H192.28L181.815 50.9308Z" fill="white"/>
    <path d="M129.271 20.014H137.344V24.3196H137.523C138.6 22.5256 139.995 21.2299 141.709 20.4326C143.424 19.5954 145.178 19.1768 146.972 19.1768C149.244 19.1768 151.098 19.4957 152.533 20.1336C154.008 20.7316 155.165 21.5887 156.002 22.705C156.839 23.7814 157.417 25.117 157.736 26.7117C158.095 28.2665 158.274 30.0007 158.274 31.9144V50.9311H149.782V33.4692C149.782 30.9177 149.384 29.024 148.586 27.7881C147.789 26.5123 146.374 25.8745 144.341 25.8745C142.028 25.8745 140.354 26.5721 139.317 27.9675C138.281 29.323 137.762 31.5755 137.762 34.725V50.9311H129.271V20.014Z" fill="white"/>
    <path d="M122.578 15.2291H114.087V8.23242H122.578V15.2291ZM114.087 20.0132H122.578V50.9303H114.087V20.0132Z" fill="white"/>
    <path d="M191.003 12.353L193.863 23.512L178.323 24.7035L191.003 12.353Z" fill="white"/>
</svg>
