<svg width="26" height="26" viewBox="0 0 26 26" fill="none" xmlns="http://www.w3.org/2000/svg">
<g clip-path="url(#clip0_9_107)">
<path d="M19.75 1H6.25C3.3505 1 1 3.3505 1 6.25V9.00002H25V6.25C25 3.3505 22.6495 1 19.75 1Z" fill="#0099B5"/>
<path d="M1 19.75C1 22.6495 3.3505 25 6.25 25H19.75C22.6495 25 25 22.6495 25 19.75V17H1V19.75Z" fill="#73AF00"/>
<path d="M25 9.00015H1V17.0003H25V9.00015Z" fill="#E9D656"/>
<path d="M25 8.28954H1V8.82232H25V8.28954Z" fill="#FF4B55"/>
<path d="M25.252 16.679H1.25195V17.2118H25.252V16.679Z" fill="white"/>
<path d="M25 8.82233H1V9.35511H25V8.82233Z" fill="white"/>
<path d="M25.252 17.2118H1.25195V17.7446H25.252V17.2118Z" fill="#FF4B55"/>
</g>
<rect x="0.5" y="0.5" width="25" height="25" rx="4.5" stroke="#121C25" stroke-opacity="0.06"/>
<defs>
<clipPath id="clip0_9_107">
<rect x="1" y="1" width="24" height="24" rx="4" fill="white"/>
</clipPath>
</defs>
</svg>
